<svg width="33" height="34" viewBox="0 0 33 34" fill="none" xmlns="http://www.w3.org/2000/svg">
<rect y="0.0148926" width="33" height="33" fill="#181818"/>
<path d="M18.7657 25.4336C17.206 25.4336 16.0239 25.0888 15.2194 24.3993C14.4314 23.6933 14.0373 22.659 14.0373 21.2963V15.5582H11.4023V12.2336H14.0373V8.88436L18.0269 8.02242V12.2336H21.6717V15.5582H18.0269V20.5082C18.0269 21.0829 18.15 21.4933 18.3963 21.7396C18.659 21.9694 19.1105 22.0844 19.7508 22.0844C20.0791 22.0844 20.3747 22.0679 20.6373 22.0351C20.9164 21.9859 21.2202 21.912 21.5485 21.8135V25.0396C21.1873 25.1545 20.7276 25.2448 20.1694 25.3105C19.6112 25.3926 19.1433 25.4336 18.7657 25.4336Z" fill="#4CC800"/>
</svg>
